<?xml version="1.0" standalone="no"?><!DOCTYPE svg PUBLIC "-//W3C//DTD SVG 1.1//EN" "http://www.w3.org/Graphics/SVG/1.1/DTD/svg11.dtd"><svg t="1512715224948" class="icon" style="" viewBox="0 0 1365 1024" version="1.1" xmlns="http://www.w3.org/2000/svg" p-id="3538" xmlns:xlink="http://www.w3.org/1999/xlink" width="170.625" height="128"><defs><style type="text/css"></style></defs><path d="M805.722 92.637c25.019-5.401 50.746 16.458 51.65 41.595 2.711 16.693-6.303 33.365-20.071 42.479-22.917 15.337-46.642 29.419-69.756 44.462-7.66 5.185-16.635 9.211-21.957 17.105-9.918 14.395-8.858 34.604 0.588 48.959 5.577 9.033 15.377 14.434 25.374 17.242 14.533 3.182 28.614-3.87 40.554-11.47 69.52-43.793 139.081-87.49 208.858-130.871 9.269-5.676 20.131-9.741 31.148-8.758 13.139 2.043 25.726 9.466 32.855 20.857 9.504 14.629 11.391 34.759 2.1 49.959-5.91 9.957-16.772 14.964-26.080 21.092-70.895 45.031-141.947 89.827-213.334 134.112-5.577 3.398-11.177 7.149-14.983 12.59-11.803 16.279-10.564 40.534 2.692 55.635 15.201 16.851 42.479 15.22 60.212 3.339 25.057-15.456 49.647-31.619 74.804-46.878 17.931-11.213 34.819-25.334 55.793-30.537 9.367-2.416 19.090 0.706 27.456 4.93 13.158 6.814 23.998 19.814 24.94 35.015 0.451 10.134-0.687 20.857-6.322 29.557-6.756 11.53-18.046 19.305-29.536 25.569-47.035 27.67-91.595 59.27-138.511 87.137-9.426 5.873-19.837 12.255-24.097 23.075-4.694 12.883-4.91 27.966 1.708 40.22 7.935 14.199 24.685 22.466 40.829 20.463 15.004-0.726 27.084-10.467 39.218-18.206 21.877-14.18 44.206-27.67 66.202-41.712 14.297-8.758 28.063-18.695 43.715-24.999 10.074-4.103 21.78-4.91 31.834-0.236 26.099 9.485 35.764 44.797 22.191 67.89-9.525 12.628-24.391 19.186-37.392 27.493-126.433 79.85-253.219 159.171-379.771 238.804-31.913 18.813-65.809 35.055-102.16 43.047-67.007 13.55-139.454 8.426-200.922-22.976-36.351-17.791-70.658-40.789-97.918-70.935-42.047-48.429-71.661-108.878-78.417-173.036-3.103-24.155-2.769-48.665-0.117-72.839 2.435-18.442 4.615-37.057 10.115-54.909 21.15-71.445 69.502-134.151 132.462-173.822 132.443-84.526 266.279-166.831 398.802-251.199 11.312-7.088 22.466-15.004 35.25-19.246M534.256 378.576c-58.679 2.219-116.162 26.471-158.64 67.027-43.047 40.554-70.404 97.211-75.453 156.146-4.163 46.131 5.243 93.364 26.61 134.446 27.593 53.595 75.765 96.112 132.366 116.85 66.948 25.178 144.797 18.736 206.697-17.125 60.938-34.485 105.459-96.348 118.618-165.142 14.080-69.126-3.948-143.833-47.879-199.018-47.427-61.037-125.098-96.837-202.318-93.186z" fill="#E6162C" p-id="3539"></path><path d="M534.256 378.576c77.22-3.652 154.891 32.149 202.318 93.186 43.931 55.184 61.959 129.89 47.879 199.018-13.158 68.795-57.679 130.657-118.618 165.142-61.902 35.86-139.748 42.302-206.697 17.125-56.599-20.738-104.771-63.257-132.366-116.85-21.367-41.085-30.773-88.315-26.61-134.446 5.047-58.934 32.404-115.594 75.453-156.146 42.479-40.554 99.961-64.806 158.64-67.027M522.987 465.787c-56.501 7.010-107.149 47.074-127.141 100.373-13.61 35.093-14.199 75.077-1.395 110.507 12.215 34.759 37.117 64.886 68.912 83.504 30.891 18.421 68.225 25.746 103.79 20.405 31.579-4.537 61.645-18.893 84.996-40.612 26.354-24.273 44.070-57.738 49.214-93.205 4.752-31.324-0.217-64.042-14.061-92.538-13.434-27.906-35.231-51.747-61.921-67.499-30.461-18.284-67.205-25.726-102.397-20.935z" fill="#FFFFFF" p-id="3540"></path><path d="M577.777 534.486c18.991-8.15 42.674 5.813 44.933 26.276 3.692 20.286-15.141 40.318-35.605 37.941-17.791-0.962-32.443-18.164-30.517-35.899 0.905-12.47 9.485-23.94 21.19-28.319zM489.009 586.47c28.811-5.91 59.68 13.335 67.205 41.731 8.935 28.692-8.19 62.078-36.665 71.601-26.553 10.173-59.053-2.396-71.918-27.71-13.276-23.842-6.795-56.247 14.572-73.174 7.698-6.343 17.027-10.625 26.805-12.451z" fill="#FFFFFF" p-id="3541"></path><path d="M522.987 465.787c35.191-4.791 71.937 2.652 102.397 20.935 26.689 15.749 48.489 39.591 61.921 67.499 13.845 28.497 18.813 61.214 14.061 92.538-5.145 35.466-22.86 68.932-49.214 93.205-23.349 21.722-53.418 36.077-84.996 40.612-35.567 5.342-72.898-1.984-103.79-20.405-31.795-18.619-56.695-48.741-68.912-83.504-12.803-35.427-12.215-75.413 1.395-110.507 19.991-53.299 70.639-93.364 127.141-100.373M577.777 534.486c-11.706 4.377-20.286 15.849-21.19 28.319-1.925 17.733 12.725 34.937 30.517 35.899 20.463 2.377 39.298-17.654 35.605-37.941-2.257-20.463-25.941-34.426-44.933-26.276M489.009 586.47c-9.78 1.826-19.109 6.109-26.805 12.451-21.367 16.928-27.847 49.333-14.572 73.174 12.863 25.315 45.364 37.884 71.918 27.71 28.475-9.525 45.601-42.91 36.665-71.601-7.521-28.397-38.395-47.644-67.205-41.731z" fill="" p-id="3542"></path></svg>